<svg id="Layer_1" data-name="Layer 1" xmlns="http://www.w3.org/2000/svg" viewBox="0 0 795.48 195.38"><defs><style>.cls-1{fill:#fff;}</style></defs><title>kincare-logo-white-01</title><path class="cls-1" d="M189.39,4.7c-24.2-10-51.9-3.79-75.31,16.6C90.65.91,63-5.32,38.76,4.7,14.85,14.6,0,38.34,0,66.65,0,124.14,105.41,190,109.89,192.8l4.18,2.59,4.18-2.59c4.49-2.78,109.89-68.66,109.89-126.15C228.14,38.34,213.29,14.6,189.39,4.7ZM107.26,172.14c-33-22.39-91.38-69.52-91.38-105.49,0-21.76,11.1-39.88,29-47.28a45.38,45.38,0,0,1,17.47-3.45c15.15,0,31.09,7.21,45.13,20.84a2.92,2.92,0,0,1,.89,2.1c0,12.68,0,119.64,0,132.69A.69.69,0,0,1,107.26,172.14ZM128.47,31.37a2.69,2.69,0,0,1,1.07-2.15c17.53-13.08,37-16.81,53.76-9.85a44,44,0,0,1,12.47,7.85,1.61,1.61,0,0,1,0,2.33L131.24,93.92a1.62,1.62,0,0,1-2.77-1.15Zm32.74,109.72c-10.63,9.26-21.52,17.69-31.16,24.63a1,1,0,0,1-1.57-.82V128a6.52,6.52,0,0,1,1.91-4.61L139.8,114a2.53,2.53,0,0,1,3.82.29l17.87,24.23A1.93,1.93,0,0,1,161.21,141.09Zm17.3-16.21a1.35,1.35,0,0,1-2-.15L157.44,99a2.18,2.18,0,0,1,.21-2.83s40.94-41.23,49.06-49.77a1.29,1.29,0,0,1,2.14.43,58,58,0,0,1,3.41,19.88C212.26,84.75,197.44,105.69,178.51,124.88Z"/><path class="cls-1" d="M349.74,47a7.36,7.36,0,0,0-.54-2.82,6.94,6.94,0,0,0-3.84-3.84,7.36,7.36,0,0,0-2.82-.54A7.16,7.16,0,0,0,337.31,42L292.16,87.17V47a7.2,7.2,0,1,0-14.39,0v94.24a7.2,7.2,0,1,0,14.39,0V107.6L301.74,98l34.9,47.32a6.79,6.79,0,0,0,6,3.06,6.42,6.42,0,0,0,2.78-.61,7.33,7.33,0,0,0,2.24-1.63,7.57,7.57,0,0,0,1.49-2.38,7.44,7.44,0,0,0,.54-2.78,6.88,6.88,0,0,0-1.36-4.07L312.06,87.71l35.58-35.64A6.94,6.94,0,0,0,349.74,47Z"/><path class="cls-1" d="M373.39,72.36a6.8,6.8,0,0,0-5,2.07,6.88,6.88,0,0,0-2.07,5.06v61.78a6.88,6.88,0,0,0,2.07,5.06,7,7,0,0,0,10,0,7.12,7.12,0,0,0,2.14-5.06V79.49a7.13,7.13,0,0,0-2.14-5.06A6.8,6.8,0,0,0,373.39,72.36Z"/><path class="cls-1" d="M373.39,50.5a8.35,8.35,0,0,0-5.91,14.26A8.35,8.35,0,0,0,379.3,52.95,8,8,0,0,0,373.39,50.5Z"/><path class="cls-1" d="M458.28,82.72A37.13,37.13,0,0,0,447,75.15a35.23,35.23,0,0,0-34.8,4.21,7.08,7.08,0,0,0-12.12-4.89,6.91,6.91,0,0,0-2.07,5v61.78a7.07,7.07,0,0,0,7.13,7.13,6.8,6.8,0,0,0,5-2.07,6.88,6.88,0,0,0,2.07-5.06V107.81a20.58,20.58,0,0,1,1.66-8.22,21.6,21.6,0,0,1,11.34-11.37,20.51,20.51,0,0,1,8.25-1.66,20.24,20.24,0,0,1,8.22,1.7A21.69,21.69,0,0,1,453,99.59a20.24,20.24,0,0,1,1.7,8.22v33.47a7.07,7.07,0,0,0,7.13,7.13,6.8,6.8,0,0,0,5-2.07,6.88,6.88,0,0,0,2.07-5.06V107.81A33.94,33.94,0,0,0,466,94,35.74,35.74,0,0,0,458.28,82.72Z"/><path class="cls-1" d="M504.93,93.51a24.4,24.4,0,0,1,7.6-5.09,23.31,23.31,0,0,1,9.3-1.87A22.47,22.47,0,0,1,530.12,88a26.08,26.08,0,0,1,7.26,4.41A7.19,7.19,0,0,0,542,94.09a6.8,6.8,0,0,0,5.06-2,7,7,0,0,0,2-5.09,6.9,6.9,0,0,0-2.44-5.36,36.21,36.21,0,0,0-24.78-9.23,38,38,0,0,0-38,38,38,38,0,0,0,62.8,28.79,7.16,7.16,0,0,0,2.24-5.23,6.85,6.85,0,0,0-7.06-7.06,7.61,7.61,0,0,0-4.48,1.49,24.49,24.49,0,0,1-7.2,4.38,22.91,22.91,0,0,1-8.28,1.46,23.29,23.29,0,0,1-9.3-1.87,24.37,24.37,0,0,1-7.6-5.09,23.67,23.67,0,0,1-5.13-7.57,24.1,24.1,0,0,1,0-18.6A23.69,23.69,0,0,1,504.93,93.51Z"/><path class="cls-1" d="M599.48,72.36a38,38,0,0,0-38,38,38,38,0,0,0,38,38,37.05,37.05,0,0,0,12.76-2.17A38.91,38.91,0,0,0,623.32,140v1.36a6.8,6.8,0,0,0,2.07,5,6.88,6.88,0,0,0,5.06,2.07,7.07,7.07,0,0,0,7.06-7.06v-31a38,38,0,0,0-38-38Zm22,47.22a24.51,24.51,0,0,1-5.09,7.57,24.16,24.16,0,0,1-7.57,5.16,23.87,23.87,0,0,1-18.67,0,23.84,23.84,0,0,1-12.59-12.7,23.77,23.77,0,0,1,0-18.47,23.84,23.84,0,0,1,12.59-12.7,23.87,23.87,0,0,1,18.67,0,24.18,24.18,0,0,1,7.57,5.16,24.52,24.52,0,0,1,5.09,7.57,23.6,23.6,0,0,1,0,18.4Z"/><path class="cls-1" d="M703.27,74.23A28.08,28.08,0,0,0,697,72.77a54.57,54.57,0,0,0-6.42-.41,37.06,37.06,0,0,0-12.76,2.17,38.92,38.92,0,0,0-11.07,6.25V79.43a7.07,7.07,0,0,0-7.06-7.06,6.88,6.88,0,0,0-5.06,2.07,6.8,6.8,0,0,0-2.07,5v61.92a6.8,6.8,0,0,0,2.07,5,6.88,6.88,0,0,0,5.06,2.07,7.07,7.07,0,0,0,7.06-7.06v-31a23.3,23.3,0,0,1,1.87-9.3,23.75,23.75,0,0,1,12.66-12.66,23.31,23.31,0,0,1,9.3-1.87,25,25,0,0,1,9.3,1.7,7.57,7.57,0,0,0,3,.75,7.09,7.09,0,0,0,2.78-.54,6.69,6.69,0,0,0,2.24-1.53,7.87,7.87,0,0,0,1.53-2.27,6.74,6.74,0,0,0,.58-2.78,6.31,6.31,0,0,0-1.9-4.75A13.41,13.41,0,0,0,703.27,74.23Z"/><path class="cls-1" d="M792.69,95.75a38.09,38.09,0,1,0-62.12,41.52,38,38,0,0,0,51.74,1.9,7.05,7.05,0,0,0,2-5.09,6.85,6.85,0,0,0-7.06-7.06,7.42,7.42,0,0,0-4.68,1.77,22.51,22.51,0,0,1-6.93,4.07,23.87,23.87,0,0,1-8.22,1.36,23.58,23.58,0,0,1-7.57-1.22,24.37,24.37,0,0,1-6.65-3.43,23.81,23.81,0,0,1-5.26-5.3,23.2,23.2,0,0,1-3.39-6.82h53.77a7,7,0,0,0,5.06-2,6.74,6.74,0,0,0,2.07-5.06A38,38,0,0,0,792.69,95.75Zm-58.12,7.57a22,22,0,0,1,3.33-6.82,23.53,23.53,0,0,1,5.3-5.3,24.81,24.81,0,0,1,6.72-3.43,23.68,23.68,0,0,1,7.54-1.22,23.37,23.37,0,0,1,7.5,1.22,24.28,24.28,0,0,1,11.95,8.72,22.78,22.78,0,0,1,3.43,6.82Z"/></svg>